<svg xmlns="http://www.w3.org/2000/svg" version="1.1" id="alien" x="0" y="0" width="516px" height="297px" viewBox="0 0 516 297">
<style>
	.B,.E,.I,.J{stroke:#3e7e42;stroke-width:2.983}
	.A{fill:url(#A);opacity:.1666}
	.B{fill:#8ed97d}
	.C{fill:url(#C)}
	.D{fill:none;stroke:#fff;stroke-width:4.863;stroke-linecap:round;stroke-linejoin:round}
	.E{fill:url(#E)}
	.F{fill:#e0773e;stroke:#000;stroke-width:2.733556}
	.G{fill:#fff}
	.H{fill:none;stroke:#000}
	.I{fill:none}
	.J{fill:#9af286;stroke-linecap:round}
	.K{fill:#54de61}
	.L{fill:url(#L);opacity:.85}
	.M{fill:#fff;stroke:#000;stroke-width:1.435}
	.N{fill:url(#N);opacity:.528}
	.O{fill:#86d973}
</style>
<linearGradient id="A" gradientUnits="userSpaceOnUse" x1="17.44" y1="-1326.8861084" x2="237.5357513" y2="-1326.8861084" gradientTransform="matrix(1 0 0 -1 0 -1052.7243652)">
	<stop offset="0" style="stop-color:#000; stop-opacity:0"/>
	<stop offset=".5" style="stop-color:#616161"/>
	<stop offset="1" style="stop-color:#000; stop-opacity:0"/>
</linearGradient>
<linearGradient id="C" gradientUnits="userSpaceOnUse" x1="393.1938171" y1="-1091.2879639" x2="515.6211548" y2="-1091.2879639" gradientTransform="matrix(1 0 0 -1 0 -1052.7243652)">
	<stop offset="0" style="stop-color:#7a73de"/>
	<stop offset=".5" style="stop-color:#a2c8e9;stop-opacity:.98"/>
	<stop offset="1" style="stop-color:#7a73de"/>
</linearGradient>
<linearGradient id="E" gradientUnits="userSpaceOnUse" x1="202.1975708" y1="-1292.9099121" x2="200.9346161" y2="-1163.8381348" gradientTransform="matrix(1 0 0 -1 0 -1052.7243652)">
	<stop offset="0" style="stop-color:#8de17a"/>
	<stop offset="1" style="stop-color:#a3f590"/>
</linearGradient>
<linearGradient id="L" gradientUnits="userSpaceOnUse" x1="218.6420898" y1="-1142.3172607" x2="199.9655151" y2="-1201.6136475" gradientTransform="matrix(1 0 0 -1 0 -1052.7243652)">
	<stop offset="0" style="stop-color:#d2f1cb"/>
	<stop offset="1" style="stop-color:#cdf9c3;stop-opacity:.4226804"/>
</linearGradient>
<linearGradient id="N" gradientUnits="userSpaceOnUse" x1="121.7175293" y1="-1243.7906494" x2="183.8578949" y2="-1189.0847168" gradientTransform="matrix(1 0 0 -1 0 -1052.7243652)">
	<stop offset="0" style="stop-color:#71bc60"/>
	<stop offset="1" style="stop-color:#77ce64;stop-opacity:.4235294"/>
</linearGradient>
<path class="A" d="M3.6720181,276.9461365c6.9760361,14.0899048,20.09021,15.8106079,35.7522125,12.5009155c8.8234024-1.864624,37.496212-3.7808838,57.5523338,4.0671997c20.0561066,7.8480225,44.4378052-1.3478394,73.213974-3.0918579s37.5306702,6.579834,56.7147522-3.012207c19.1841125-9.592041,63.6563568-12.2080688,39.2402191-20.9281006c-24.4161224-8.7200928-109.8726044-6.9760742-142.136795-2.6160278s-103.7686005-16.5681-115.9766693-11.3360443C-4.9165707,258.0793762,1.0560054,264.7380676,3.6720181,276.9461365z"/>
<path class="B" d="M79.2952881,160.1368256c-6.6126404,24.1396484-11.8087006,80.4466553-15.0701675,102.7631073c-0.7983284-0.2640381-1.6621819-0.427063-2.5508385-0.3878174c-4.076355,0.1799927-7.2162704,3.7572632-7.0300293,7.9741821c0.1862259,4.2168579,3.6278992,7.472229,7.7042389,7.2921753c2.8193245-0.1245117,5.1127052-1.9140015,6.2506142-4.3737793c1.2191467,2.6487427,3.9185944,4.4564819,7.0099335,4.3199463c4.0763092-0.1800537,7.2522888-3.6494751,7.0722656-7.7258301c-0.1800385-4.076355-3.6480865-7.2210693-7.7244263-7.0410767c-0.0107269,0.0004883-0.0205231,0.0009155-0.0312195,0.0014038c0.5071411-3.6356812,10.5974121-70.7037811,11.8143921-77.4416962C87.9952087,178.568161,87.260498,131.0596161,79.2952881,160.1368256z"/>
<path class="C" d="M393.1938171,54.9088898c18.6149902,5.7351379,36.8451843-6.0172729,47.5569458,0.7377014c10.711731,6.7549438,20.0618896,16.4194641,36.9140625,14.8753357c16.6679077-1.5272522,37.9563293-9.5574951,37.9563293-9.5574951s-20.9231262-9.0257874-29.9491272-19.2919312c-9.026001-10.2661133-13.3097534-20.8863831-29.1522217-26.554718c-21.5143127-7.6976933-40.3772888-3.6274719-49.2913208-8.677002C395.9910889,16.221756,393.1938171,54.9088898,393.1938171,54.9088898z"/>
<path class="D" d="M413.2279358,15.0205231l-9.2538757,33.2632751l16.6610107-1.9324646"/>
<path class="D" d="M434.7859192,16.7386932l-5.6413574,29.359314"/>
<path class="D" d="M459.8540955,27.6815033c-3.5083008-5.146637-16.6417542-13.0100708-17.995697-1.9396362c-1.3539429,11.0704651,20.0816345,8.3699951,14.7797546,21.6716003c-4.3201294,10.838562-18.2128906-3.7234497-18.2128906-3.7234497"/>
<path class="D" d="M461.8890076,61.0131683l5.9993896-27.9335022c0,0,13.7836304,10.0430298,10.9307251,16.7071838c-3.8771362,9.0567627-13.3400879-3.502655-13.3400879-3.502655"/>
<path class="E" d="M207.0466156,83.6446991c-84.4871521-0.3056946-153.1848755,34.9888306-162.4252319,63.6862793c-7.6712494,23.8244019-18.2473125,91.413147-22.4902172,113.5639496c-0.7858963-0.2989502-1.641716-0.5-2.53125-0.5c-4.0803146,0-7.375,3.4352417-7.375,7.65625s3.294693,7.625,7.375,7.625c2.8220901,0,5.1921844-1.6865845,6.4375-4.09375c1.1010971,2.7000122,3.7181702,4.625,6.8124981,4.625c4.080307,0,7.40625-3.3259277,7.40625-7.40625s-3.325943-7.375-7.40625-7.375c-0.0107193,0-0.0205383-0.000061-0.03125,0c0.6670532-3.6097412,10.7584-60.5952606,15.3256607-70.3271332c3.0001602-6.3927002,127.2249603-12.2307739,129.133316-6.3618164c2.7565155,8.477417-4.4718628,62.3816528-6.1152191,83.9430389c-0.388504-0.0523682-0.7511749-0.1695557-1.15625-0.15625c-4.0780945,0.1343994-7.2640076,3.687561-7.125,7.90625c0.1389923,4.21875,3.5469055,7.5093994,7.625,7.375c2.8205566-0.0929565,5.1158752-1.8656006,6.28125-4.3125c1.1894226,2.6622925,3.8760986,4.5081787,6.96875,4.40625c4.0780945-0.1343384,7.2906189-3.578125,7.15625-7.65625c-0.1343536-4.078064-3.5468903-7.2593384-7.625-7.125c-0.3497772,0.0115356-0.667923,0.1280518-1,0.1875c1.1645508-16.5484467,9.3389435-82.7507782,13.6641388-87.6520233c2.9555359-3.3491211,27.6843872-4.8604126,28.4646606,0.4962158c0.6847534,4.7009888,12.3891907,75.7534637,11.0795898,83.1407318c-7.9367676-0.2595215-13.6737671,9.1974487-9.2246704,12.9701538c4.1713257,3.5371704,11.239502,4.7278442,13.6017761-2.6921387c4.6983948,7.9984131,12.0396729,4.4419556,14.5362549,0.5784302c2.1472626-3.322937-0.1440735-10.121521-9.9133606-11.2314453c3.843811-16.6823578-4.8519897-90.9381561-3.4994202-92.9279633c1.5605469-2.2957153,9.3759766-15.3171387,10.15625-24.5c0.1077881-1.2686768,0.0948486-3.5532837-0.0625-6.3125c24.4053497,4.6828613,40.7939911,7.8244019,51.5778961,1.9003296c15.2616577-8.3839111,18.1365967-14.5887451,33.6720886-24.8065796c19.3465881-12.7244263,33.8642883-5.0976257,43.134613-6.9977112c9.2703247-1.9000549,4.980957-14.29245,10.5768738-23.757782c6.0758057-10.2770996-21.4815674-17.5152893-27.8041382-9.4140625c-7.8682556,10.0817566-6.4578247,17.1133118-13.5467529,19.5753174c-9.2956543,3.2283936-29.4816895,15.5579529-36.0860901,20.2185059c-11.1879883,7.8950806-21.2255859,14.4978638-41.2432556,6.8757324c-14.803833-7.3844604-11.6147766-23.9117737-31.0312347-32.125c-9.4226685-4.8435974-18.5412292-8.6653442-25.875-9.9375c-0.381958-0.0864868-0.7665405-0.1426392-1.15625-0.21875c-0.4541321-0.0630188-0.9058533-0.1160583-1.34375-0.15625C210.2505341,82.0535126,208.9103546,83.7136688,207.0466156,83.6446991z"/>
<path class="F" d="M403.8922119,1.6140271c2.2406311,0.3336047,3.7927246,2.1977015,2.6583252,6.2340107l-31.660553,110.3591766c-1.1343689,4.0363083-2.8590698,5.0325165-5.0997009,4.6989136c-2.2406311-0.3336105-4.1235046-1.8669434-2.9891052-5.9032516L398.461731,6.6436996C399.5961304,2.6073906,401.6515808,1.2804226,403.8922119,1.6140271z"/>
<path class="G" d="M182.6707306,119.1212921c-5.1219025,17.7296448,8.8648376,23.245575,8.8648376,23.245575s5.5158997,3.5458984,9.8497925,4.7279053c4.3339233,1.1819458,21.8173523,6.2053833,23.245575-13.1987915C217.9823151,132.0245209,182.6707306,119.1212921,182.6707306,119.1212921z"/>
<path class="H" d="M218.5240631,131.9260101l-3.7429504,16.5477295"/>
<path class="H" d="M212.41716,130.3500824l-4.1369019,18.1236572"/>
<path class="H" d="M206.7042694,127.9861298l-4.1369019,18.7145996"/>
<path class="H" d="M201.1883698,126.0161591l-4.1369019,18.7145996L201.1883698,126.0161591z"/>
<path class="H" d="M195.4754791,124.0461884l-3.9399109,18.3206787"/>
<path class="H" d="M190.5505829,122.2732391l-3.7429352,15.956665"/>
<path class="H" d="M186.0196686,120.1062469l-2.9549408,12.2138062"/>
<path class="H" d="M223.0549774,141.3818817c-12.6077881-0.394043-33.0953827-7.2888794-41.5662231-14.1837769"/>
<path class="I" d="M251.2667999,141.2205658c-27.445343-6.9475098-68.2305603-22.3216858-68.2305603-22.3216858s-9.8566437,22.2252502,22.8165894,29.259491c18.2492981,3.928894,18.7962952-13.8907471,18.7962952-13.8907471"/>
<path class="J" d="M384.5798645,98.2146149c9.4925537,1.2267151,12.3069153-9.4506226,9.0319214-14.5167847c-2.9842529-4.6164246-13.2368164-9.6386414-15.8452454-3.2740173c-1.9557495,4.7720947,3.2128296,7.482605,7.5262451,7.0378418"/>
<path class="J" d="M380.958313,103.8408356c-3.8728027-2.0275879-9.2686768-1.5995178-6.8452759-8.2692261c1.7913208-4.9300537,7.6908569-1.1469116,15.5960693,4.2608032c7.9052124,5.4077454-0.2933655,12.1001892-9.8944397,11.270874"/>
<path class="J" d="M356.104126,88.7966461c3.2436523-5.7656555,4.1956177-11.5858459,7.7109375-12.7930298c3.3940735-1.1654968,11.5177307-7.1040039,14.4378052-5.5347595c2.9200134,1.5692749,5.2510071,7.1749878-4.1331482,11.6867676c-4.4750366,2.1515503-4.6642151,7.8261719-8.3003845,10.0763245"/>
<path class="K" d="M141.2035065,116.4000092c0,0,19.7123413-3.2107849,18.0493469-14.4635315c-1.3977661-9.4581299-15.5948639-7.3493347-22.7325897-5.5520325c0.4525604,5.7355042,1.2177124,8.8887024-5.3395233,11.6467896C137.7753906,107.8956757,139.2863312,109.8574982,141.2035065,116.4000092z"/>
<path class="K" d="M143.3719025,138.8118744c0,0,19.9698944-0.2979736,19.9678497-11.6729126c-0.0016937-9.5608521-14.3545532-9.5477295-21.6782227-8.8119507c-0.3897858,5.7401123-0.0932617,8.9712524-6.9829712,10.7422485C141.2223206,129.8981171,142.430603,132.0595551,143.3719025,138.8118744z"/>
<path class="K" d="M143.5322266,162.0849457c0,0,19.9328308,1.2518921,20.8130951-10.0889282c0.7398987-9.5322266-13.570755-10.6323853-20.9294128-10.4669189c-0.833847,5.6925659-0.7888489,8.9370117-7.7951508,10.1682739C142.0805206,153.0312958,143.1175079,155.279953,143.5322266,162.0849457z"/>
<path class="K" d="M142.8713837,164.5414276c-1.2047424,5.6257324-1.3656006,8.8862915-8.4375,9.65625c5.398056,1.4890137,6.7967224,3.5414429,7.09375,8.25c6.4698639-0.0967407,12.3734589-0.0898438,17.5,0.03125c2.0849457-1.343811,3.6260223-3.3103027,4.03125-6.125C164.4212952,166.8906708,150.2251129,164.858078,142.8713837,164.5414276z"/>
<path class="K" d="M132.5588837,92.8539276c-8.5067749,2.1990662-16.6052551,4.7221069-24.15625,7.5c4.4922485,0.9464111,5.6924591,3.1117249,6.5,8.625c0,0,19.7506561-0.5701904,19.75-11.28125C134.6525116,95.6074066,133.8236847,94.0587006,132.5588837,92.8539276z"/>
<path class="K" d="M119.0857391,129.6050873c0,0,19.7358246-0.5061646,19.7640076-11.2171936c0.0236816-9.0028687-14.1604462-8.8283691-21.3999481-8.0527954c-0.4004211,5.4094543-0.1159515,8.4486694-6.9293365,10.1941833C116.9850769,121.2357941,118.1734161,123.2574921,119.0857391,129.6050873z"/>
<path class="K" d="M120.9353943,151.8010101c0,0,19.7358246-0.5061646,19.7640076-11.2172241c0.0236816-9.0028687-14.1604309-8.8283691-21.3999329-8.0527954c-0.4004211,5.4094849-0.1159515,8.4487305-6.9293518,10.1942139C118.8347473,143.4317474,120.0230713,145.4534149,120.9353943,151.8010101z"/>
<path class="K" d="M121.0727386,172.8864594c0,0,19.7105713,1.1192017,20.6198273-9.5532227c0.7642365-8.9703979-13.3861694-9.9633789-20.664917-9.7860107c-0.844101,5.3582153-0.8106079,8.4105225-7.7445068,9.5895996C119.6677246,164.3727875,120.6857147,166.4853363,121.0727386,172.8864594z"/>
<path class="K" d="M119.4963837,174.8226776c-0.644516,4.0913086-0.855072,6.8110962-3.96875,8.40625c8.452774-0.3859253,16.6032104-0.645813,24.34375-0.78125C138.2865143,175.5391083,126.1207581,174.6612396,119.4963837,174.8226776z"/>
<path class="K" d="M96.5120087,123.0657806c0,0,19.5646057-2.6429138,18.4313354-13.2938538c-0.9525299-8.9523621-14.339386-5.7523193-21.4521179-4.1964417c0.1884308,5.4210205,0.1059875,6.9227295-6.4779968,9.396637C93.5163422,114.973587,94.9168549,116.8545074,96.5120087,123.0657806z"/>
<path class="K" d="M98.6699371,143.7203217c0,0,19.564621-2.6429443,18.4313507-13.2938843c-0.9525299-8.9523621-15.0341339-7.2410889-22.1468658-5.6851807c0.1884155,5.4210205,0.8007355,8.411499-5.7832642,10.885376C95.6742859,135.6280975,97.0747986,137.5090179,98.6699371,143.7203217z"/>
<path class="K" d="M98.265564,163.3647919c0,0,19.7422943,0.0327759,20.0628052-10.6735229c0.2694092-8.9989014-13.9141998-9.2116089-21.1721497-8.6339111c-0.5479431,5.3965454-0.3465118,8.4423828-7.2050171,10.0012817C96.3941345,154.94133,97.5268402,156.9946747,98.265564,163.3647919z"/>
<path class="K" d="M97.3784027,183.6460419c0,0,19.7041626,1.2268066,20.6716919-9.4404297c0.8132324-8.9661255-13.331543-10.036377-20.6111603-9.8987427c-0.8733368,5.3535156-0.8565369,8.4059448-7.7967682,9.5471191C96.0199127,175.1248016,97.0263367,177.2429047,97.3784027,183.6460419z"/>
<path class="K" d="M77.5639648,137.2089081c0,0,18.2251892-4.0643311,16.2770233-14.0762329c-1.6374817-8.4152527-14.7708282-5.6710815-21.3474579-3.6290894c0.6254578,5.1266479,1.449707,7.9143066-4.5526428,10.7849121C74.0714874,129.7722015,75.5471191,131.4446869,77.5639648,137.2089081z"/>
<path class="K" d="M77.8465881,156.2513885c0,0,18.5347443-2.2670288,17.5725403-12.4212646c-0.8087463-8.53479-14.1471405-7.0848999-20.8916016-5.6942139c0.122345,5.163208,0.6707306,8.0180054-5.5830231,10.2893677C75.0962219,148.5094452,76.4016724,150.3179169,77.8465881,156.2513885z"/>
<path class="K" d="M77.1701202,174.7193451c0,0,18.6496124-0.9318237,18.4181976-11.1289062c-0.194519-8.5708618-13.6025696-8.0813599-20.4293976-7.1779785c-0.248291,5.1586914,0.0939178,8.0454102-6.3066406,9.8623657C74.9821167,166.8000946,76.1545105,168.6974945,77.1701202,174.7193451z"/>
<path class="K" d="M76.3401337,175.5101776c-0.7414093,5.1112061-0.6735535,8.0233765-7.21875,9.21875c1.9165955,0.3515625,3.2063599,0.836731,4.25,1.46875c6.8258057-0.6989136,14.4159698-1.2996826,22.59375-1.84375C96.2837524,176.0652924,83.1465607,175.267746,76.3401337,175.5101776z"/>
<path class="K" d="M57.0852165,149.3075409c0,0,18.015522-2.7125244,16.7387733-12.1848145c-1.0731506-7.9616699-14.0439262-6.1795044-20.5806465-4.6630249c0.2910843,4.828186,0.921257,7.4823608-5.1072235,9.807373C54.1433296,142.149765,55.4776268,143.8006439,57.0852165,149.3075409z"/>
<path class="K" d="M56.5309334,167.0718231c0,0,18.1937065-0.9512329,17.8422966-10.5027466c-0.2954102-8.0282593-13.3779106-7.5133057-20.0309486-6.6384277c-0.1788635,4.8336792,0.1907349,7.536499-6.034935,9.2655029C54.2975883,159.6623993,55.4653664,161.4349823,56.5309334,167.0718231z"/>
<path class="K" d="M56.8392067,185.5684662c0,0,18.1937218-0.9512939,17.8422966-10.5028076c-0.2953949-8.0282593-13.377903-7.5133057-20.030941-6.6383667c-0.1788635,4.8336182,0.1907349,7.536438-6.034935,9.2654419C54.6058693,178.1589813,55.7736473,179.9315643,56.8392067,185.5684662z"/>
<path class="K" d="M132.5588837,92.8539276c-8.5067749,2.1990662-16.6052551,4.7221069-24.15625,7.5c4.4922485,0.9464111,5.6924591,3.1117249,6.5,8.625c0,0,19.7506561-0.5701904,19.75-11.28125C134.6525116,95.6074066,133.8236847,94.0587006,132.5588837,92.8539276z"/>
<path class="L" d="M55.1203117,133.9373016c-11.3360596,19.1841431-6.9760437,18.3121338,2.6160202,15.696106c9.5920525-2.6160278,78.4804535-17.4400635,88.0725098-14.8240967c9.5920563,2.6160278,23.5441284-0.8720093,26.160141-11.3360596c2.6160278-10.4640503,3.3330078-15.9200134,14.8068695-11.4738464c18.9120636,7.3284607,54.953537,14.0898743,68.9056244,16.7059021c13.9520416,2.6160278,29.6481476,14.8240967,52.3202667,1.7440186c22.6721497-13.0801086,41.0754089-24.0485229,49.7042847-30.5202026c1.7440186-1.3079834,7.4511719-14.155426,9.3295898-18.5716553c0.939209-2.2080994,8.8848572-6.4804382,8.4429626-7.6039429s-5.0141907,0.8123474-9.7133179,3.9257812c-4.8554688,3.2170105-7.9653625,18.5506287-14.069397,21.1666565s-25.3819885,13.2912292-33.2300415,19.3952637s-28.7761841,18.3121033-42.728241,11.3360901c-13.9520874-6.9760742-19.1841125-20.0561218-30.5201874-27.9041748c-11.3360596-7.848053-60.168335-23.5441589-118.5926666-4.3600159C68.2003937,116.4972382,65.5843811,123.4732513,55.1203117,133.9373016z"/>
<path class="K" d="M76.3401337,175.5101776c-0.7414093,5.1112061-0.6735535,8.0233765-7.21875,9.21875c1.9165955,0.3515625,3.2063599,0.836731,4.25,1.46875c6.8258057-0.6989136,14.4159698-1.2996826,22.59375-1.84375C96.2837524,176.0652924,83.1465607,175.267746,76.3401337,175.5101776z"/>
<path class="K" d="M119.4963837,174.8226776c-0.644516,4.0913086-0.855072,6.8110962-3.96875,8.40625c8.452774-0.3859253,16.6032104-0.645813,24.34375-0.78125C138.2865143,175.5391083,126.1207581,174.6612396,119.4963837,174.8226776z"/>
<path class="I" d="M214.4651337,82.7059784c-0.381958-0.0864868-0.7665405-0.1426392-1.15625-0.21875c-0.4541321-0.0630188-0.9058533-0.1160583-1.34375-0.15625c-1.7145996-0.2774658-3.0547791,1.3826904-4.9185181,1.3137207c-84.4871521-0.3056946-153.1848755,34.9888306-162.4252319,63.6862793c-7.6712494,23.8244019-18.2473125,91.413147-22.4902172,113.5639496c-0.7858963-0.2989502-1.641716-0.5-2.53125-0.5c-4.0803146,0-7.375,3.4352417-7.375,7.65625s3.294693,7.625,7.375,7.625c2.8220901,0,5.1921844-1.6865845,6.4375-4.09375c1.1010971,2.7000122,3.7181702,4.625,6.8124981,4.625c4.080307,0,7.40625-3.3259277,7.40625-7.40625s-3.325943-7.375-7.40625-7.375c-0.0107193,0-0.0205383-0.000061-0.03125,0c0.6670532-3.6097412,10.7584-60.5952606,15.3256607-70.3271332c3.0001602-6.3927002,127.2249603-12.2307739,129.133316-6.3618164"/>
<path class="M" d="M200.8966217,63.7006683c-10.2437897,0.196991-16.1536713,8.8648071-11.425766,15.956665c4.7279205,7.0918884,22.8515778,6.1069031,25.2155304-1.1819763C217.0503387,71.1865082,207.0035248,62.912674,200.8966217,63.7006683z"/>
<path d="M203.6139374,75.4999847c5.6530457-1.1406555,4.4183655-4.6740723,2.1978149-7.4456482c-2.22052-2.7716064-7.4926453-1.138031-7.3827515,2.1624146C198.5388641,73.5171661,199.4956512,75.0609283,203.6139374,75.4999847z"/>
<path class="M" d="M233.606369,85.1312714c2.1708374-10.6003723-3.618103-15.1433716-13.025116-15.9005432c-9.4070435-0.7571716-20.9849243,3.7858276-16.643219,11.3575134S227.0937958,98.7602997,233.606369,85.1312714z"/>
<path class="M" d="M178.9229279,70.535965c-8.7862091,5.2703247-9.596817,15.7298279-1.9659576,19.526886c7.6308746,3.7970581,22.858902-6.0794067,21.2806549-13.5777283C196.6593475,68.9868011,183.8270721,66.8124542,178.9229279,70.535965z"/>
<path d="M180.2119446,79.845993c1.598175,5.5411072,5.0190582,4.0221863,7.600174,1.5828552c2.581131-2.4393005,0.5227509-7.5605469-2.7577057-7.1816711S180.3134308,75.7056122,180.2119446,79.845993z"/>
<path class="M" d="M208.2115021,82.1829681c-6.1507568-5.6788025-18.8140564-9.0860291-22.4321442-2.2715454c-3.6180878,6.8145142-1.4472504,20.443573,11.5778656,19.6864014S214.3622284,87.8617401,208.2115021,82.1829681z"/>
<path class="M" d="M214.4893951,79.4603729c-7.6828613,0.5909729-12.6077576,9.4558105-6.8948669,13.395752c5.7128906,3.9399109,17.5326538,3.9399109,18.5176392-3.545929C227.0971527,81.8243256,220.7932587,79.263382,214.4893951,79.4603729z"/>
<path d="M198.7296906,81.6273041c-5.7128906-0.7879639-5.7128906,2.9549561-4.5309143,6.303894s6.697876,3.545929,7.6828613,0.3940125C202.8665924,85.1732635,202.4726105,83.4002838,198.7296906,81.6273041z"/>
<path d="M219.9296722,82.8735809c-4.4221802-0.5657349-4.4221802,2.1215515-3.5072327,4.5259399c0.914917,2.4043884,5.1846008,2.5458069,5.9470215,0.2828674C223.1319122,85.4194183,222.8269501,84.1464996,219.9296722,82.8735809z"/>
<path d="M223.5451202,72.9660492c-5.0716858,2.7451782-2.8569336,5.7625122,0.0775452,7.7628479c2.9344482,2.0003357,7.4976501-1.1046753,6.4266357-4.2284546C228.9782867,73.3766937,227.611557,72.1805573,223.5451202,72.9660492z"/>
<path class="N" d="M235.7006989,145.2303314c8.5477905,3.4191284,4.2738953,28.2077637-8.5477905,29.9172974c-12.8217163,1.7095947-99.1545105,4.2739258-114.5405579,5.1287231c-15.3860321,0.8547363-56.415493,5.9834595-56.415493,5.9834595s-5.9834595-5.1287231-6.8382339-10.2573853c-0.8547821-5.1286621,56.4154854-14.53125,76.9302063-15.3860474s58.4971008-12.8079834,64.1085052-10.2573242C209.2025299,158.9068451,230.5720367,146.9399261,235.7006989,145.2303314z"/>
<path class="O" d="M389.7228699,88.5526886c-2.9743042,0.1101685-4.6266785-0.3304749-5.1774902,1.5422363c-0.5507812,1.8727112,1.4320679,5.3977966,2.6438293,5.7282715c1.2117615,0.3305054,4.8470154-2.0930176,5.0673218-3.7453918C392.4768677,90.4253998,391.4854126,89.2136688,389.7228699,88.5526886z"/>
<path class="O" d="M388.290802,101.5514984c-2.203186-1.3219299-6.6095581-1.8727112-7.2705078-0.9914551c-0.6609497,0.8812866,2.8641357,1.4320984,2.0930176,3.1946411s-2.313324,1.5422363-2.8641357,2.313324c-0.5508118,0.7711182-1.5422363,2.0930481-0.4406433,2.8641663s8.9229126-0.6609802,9.5838623-1.7625427C390.0533447,106.0680084,392.1463928,103.4242096,388.290802,101.5514984z"/>
</svg>
